# xmcd
#
# Track frame offsets:
#	150
#	34134
#	39901
#	48054
#	58176
#	73047
#	83572
#	95110
#	117618
#	133515
#	156126
#	182936
#	214876
#	228513
#	268023
#	296839
#	322350
#
# Disc length: 4648 seconds
#
# Revision: 1
# Processed by: cddbd v1.5.2PL0 Copyright (c) Steve Scherf et al.
# Submitted via: audiograbber 1.83.01
#
DISCID=07122611
DTITLE=Sybil Gräfin Schönfeld - Nordische Sagen und Märchen CD2
DYEAR=2014
DGENRE=Speech
TTITLE0=Götterdämmerung
TTITLE1=Die Insel
TTITLE2=Riesenmahlzeiten
TTITLE3=Zwergenmahlzeiten
TTITLE4=Der Zwerg und der neue Rock
TTITLE5=Der Kobold im Krug
TTITLE6=Die Kühe der Riesin
TTITLE7=Gar Nichts
TTITLE8=Der Riese und die Meerfrau
TTITLE9=Die Schneekönigin und d ie grüne Braut
TTITLE10=Des Fischers Frau
TTITLE11=Der Elfenschal
TTITLE12=Der Schatz
TTITLE13=Der Eisriese auf Brautschau
TTITLE14=Die Meerfee
TTITLE15=Der Krug
TTITLE16=Das Schöne und das hässliche Kind
EXTD=
EXTT0=
EXTT1=
EXTT2=
EXTT3=
EXTT4=
EXTT5=
EXTT6=
EXTT7=
EXTT8=
EXTT9=
EXTT10=
EXTT11=
EXTT12=
EXTT13=
EXTT14=
EXTT15=
EXTT16=
PLAYORDER=
